<svg xmlns="http://www.w3.org/2000/svg" viewBox="0 0 291.766 291.766"><path d="M172.442 228c0-35.687 28.94-64.618 64.617-64.618 13.53 0 26.085 4.176 36.47 11.288v-37.847h9.118c5.042 0 9.118-4.066 9.118-9.127V91.234c0-5.033-4.076-9.118-9.118-9.118H9.118C4.085 82.116 0 86.202 0 91.234v36.46c0 5.06 4.085 9.128 9.118 9.128h9.118V264.47c0 10.074 8.17 18.234 18.235 18.234h166.316c-18.2-11.432-30.344-31.628-30.344-54.705z" fill="#F4B459"/><path d="M172.442 228c0-2.79.237-5.508.574-8.207-5.188 1.933-8.9 6.884-8.9 12.756 0 6.618 4.687 12.125 10.906 13.402-1.64-5.7-2.58-11.716-2.58-17.953z" fill="#9E7E3A"/><path d="M172.442 228c0-35.687 28.94-64.618 64.617-64.618 3.126 0 6.18.292 9.19.73l27.28-27.29H18.235v127.64c0 10.074 8.17 18.234 18.235 18.234h91.195l45.506-45.506c-.427-3.01-.728-6.063-.728-9.19z" fill="#DBA250"/><circle cx="68.382" cy="186.97" r="13.676" fill="#9E7E3A"/><circle cx="113.971" cy="186.97" r="13.676" fill="#9E7E3A"/><circle cx="68.382" cy="232.558" r="13.676" fill="#9E7E3A"/><circle cx="113.971" cy="232.558" r="13.676" fill="#9E7E3A"/><path d="M231.114 14.82c-7.677-7.678-20.123-7.678-27.818 0L133.29 84.823c-7.676 7.695-7.676 20.14 0 27.827 7.687 7.687 20.142 7.687 27.82 0l70.004-70.013c7.686-7.686 7.686-20.14 0-27.818z" fill="#475F6C"/><circle cx="113.971" cy="186.979" r="13.676" fill="#8E7133"/><circle cx="68.382" cy="186.979" r="13.676" fill="#8E7133"/><circle cx="113.971" cy="232.567" r="13.676" fill="#8E7133"/><circle cx="68.382" cy="232.567" r="13.676" fill="#8E7133"/><path d="M237.06 173.293c30.215 0 54.705 24.49 54.705 54.706 0 30.206-24.49 54.705-54.706 54.705-30.208 0-54.707-24.5-54.707-54.706 0-30.217 24.5-54.707 54.706-54.707z" fill="#3DB39E"/><path d="M255.294 218.882h-9.118v-9.118c0-5.042-4.076-9.118-9.118-9.118s-9.118 4.076-9.118 9.118v9.118h-9.118c-5.042 0-9.118 4.076-9.118 9.118s4.076 9.118 9.118 9.118h9.118v9.118c0 5.042 4.076 9.118 9.118 9.118s9.118-4.076 9.118-9.118v-9.118h9.118c5.042 0 9.118-4.076 9.118-9.118 0-5.043-4.076-9.118-9.118-9.118z" fill="#FFF"/><path d="M172.442 228c0-2.79.237-5.508.574-8.207-5.188 1.933-8.9 6.884-8.9 12.756 0 3.783 1.533 7.202 4.004 9.682l5.05-5.05c-.436-3-.728-6.055-.728-9.183zM178.624 200.573c3.073-6.556 7.185-12.51 12.172-17.634-1.723-5.572-6.866-9.647-13.002-9.647-7.55 0-13.676 6.127-13.676 13.676 0 7.558 6.127 13.675 13.676 13.675l.83-.072z" fill="#8E7133"/></svg>