<svg xmlns="http://www.w3.org/2000/svg" viewBox="0 0 504.124 504.124"><path d="M0 126.622L252.062 1.378 504.124 126.62v16.543L252.062 268.406 0 143.558v-16.936z" fill="#EFC75E"/><path d="M0 126.622l252.062 125.243 252.062-125.243v250.88l-252.85 125.243L0 377.503v-250.88z" fill="#E7BF55"/><path d="M252.062 502.352V251.866L1.575 127.41H0V377.5l251.274 125.244.788-.392z" fill="#DBB551"/><path d="M102.794 75.815l251.668 125.243 51.2-25.206L153.206 50.61l-50.412 25.205z" fill="#F7E3AF"/><path d="M354.462 201.06l51.2-25.207v78.77l-13.785-2.364-14.572 17.722-22.843-1.575V201.06z" fill="#F1D999"/><path d="M200.074 351.902l-85.07-42.535c-4.727-2.363-8.666.394-8.666 6.302v57.107c0 5.908 3.938 12.603 8.665 14.966l85.465 42.535c4.726 2.363 8.665-.394 8.665-6.302v-57.502c-.395-5.908-4.333-12.208-9.06-14.572zm-19.3 46.868l-54.35-27.175c-2.363-1.182-4.332-4.726-4.332-7.877s1.97-4.726 4.332-3.545l54.35 27.175c2.364 1.182 4.333 4.726 4.333 7.877s-1.97 4.726-4.332 3.545zm7.878-19.693l-62.228-31.508c-2.363-1.183-4.332-4.727-4.332-7.878s1.97-4.726 4.332-3.545l62.228 31.508c2.363 1.182 4.332 4.726 4.332 7.877 0 3.545-1.97 4.726-4.332 3.545z" fill="#F2F2F2"/></svg>