<svg xmlns="http://www.w3.org/2000/svg" viewBox="0 0 491.508 491.508"><path fill="#31978C" d="M491.5 185.535L126.97 398.973 18.327 213.425 382.858-.013z"/><path d="M354.827 40.557L67.473 208.81c6.25 10.675 2.413 24.54-8.567 30.97L123.86 350.71c10.98-6.43 24.95-2.99 31.2 7.684l287.354-168.254c-6.25-10.674-2.415-24.538 8.568-30.968L386.026 48.24c-10.982 6.432-24.95 2.99-31.2-7.683z" fill="#44C4A1"/><g fill="#31978C"><ellipse transform="rotate(-120.35 254.928 199.47)" cx="254.939" cy="199.481" rx="73.339" ry="57.938"/><ellipse cx="396.545" cy="116.56" rx="13.107" ry="13.107"/></g><ellipse cx="113.32" cy="282.426" rx="13.107" ry="13.107" fill="#3EA69B"/><path d="M282.084 252.03l-5.256-8.978c-11.91 5.434-24.613 6.873-38.098 4.314l2.713-15.954c10.39 1.953 19.56 1.367 27.54-1.76l-13.97-23.857c-10.562 3.214-19.052 4.275-25.467 3.187-6.415-1.088-11.7-5.177-15.85-12.267s-5.075-14.337-2.754-21.756c2.324-7.416 7.34-13.652 15.056-18.72l-3.6-6.15 7.865-4.605 3.67 6.27c9.404-4.62 19.73-6.54 30.982-5.75L263.543 162c-7.67-.683-14.916.368-21.76 3.16l13.534 23.117.37-.217c10.725-3.303 19.402-4.366 26.03-3.188 6.643 1.177 12.06 5.356 16.258 12.526 4.2 7.175 5.08 14.508 2.634 21.988-2.442 7.49-7.718 13.878-15.844 19.187l5.183 8.85-7.866 4.606zm-55.15-74.294c-1.014 3.066-.71 5.972.898 8.72 1.608 2.746 3.7 4.437 6.276 5.072 2.57.646 6.59.354 12.048-.86L233.7 169.395c-3.5 2.492-5.756 5.27-6.767 8.342zm57.46 38.76c1.19-3.222.948-6.273-.733-9.145-1.678-2.866-3.91-4.615-6.697-5.242-2.796-.62-7.08-.228-12.86 1.173l12.96 22.132c3.695-2.708 6.133-5.68 7.33-8.915z" fill="#44C4A1"/><path fill="#F6C358" d="M344.636 271.525L273.85 312.97 165.21 127.424l70.785-41.445z"/><g fill="#FFF"><path d="M284.512 306.756l-5.413 3.17-108.642-185.55 5.413-3.168zM339.395 274.58l-5.413 3.17-108.64-185.548 5.412-3.17z"/></g><path fill="#3EA69B" d="M484.087 338.477l-414.795 79.75L28.7 207.092l414.794-79.75z"/><path d="M78.578 385.148l-28.985-150.8c8.33-1.6 13.786-9.652 12.185-17.983l354.49-68.135c1.6 8.33 9.653 13.786 17.983 12.185l28.986 150.8c-8.33 1.6-13.786 9.652-12.185 17.983L96.56 397.333c-1.6-8.33-9.65-13.787-17.982-12.185z" fill="#44C4A1"/><g fill="#3EA69B"><ellipse transform="rotate(-100.883 256.4 272.786)" cx="256.413" cy="272.781" rx="73.339" ry="57.938"/><ellipse cx="417.541" cy="241.809" rx="13.107" ry="13.107"/><ellipse cx="95.266" cy="303.757" rx="13.107" ry="13.107"/></g><path d="M264.488 331.374l-1.963-10.215c-13.04 1.153-25.496-1.725-37.357-8.633l7.875-14.137c9.144 5.304 17.986 7.81 26.55 7.52l-5.217-27.15c-11.03-.49-19.387-2.32-25.073-5.483-5.686-3.164-9.304-8.78-10.855-16.85-1.55-8.067-.006-15.207 4.655-21.43 4.662-6.215 11.47-10.423 20.434-12.63l-1.345-6.998 8.95-1.72 1.372 7.134c10.405-1.22 20.78.41 31.126 4.905l-6.625 14.622c-7.004-3.2-14.186-4.624-21.57-4.274l5.057 26.306.42-.08c11.213.46 19.748 2.35 25.606 5.67 5.87 3.324 9.584 9.07 11.152 17.23 1.57 8.164-.045 15.37-4.845 21.607-4.798 6.25-11.902 10.513-21.333 12.81l1.936 10.073-8.95 1.72zm-27.234-88.426c-1.977 2.553-2.66 5.394-2.06 8.52.602 3.126 2.01 5.418 4.227 6.875 2.207 1.465 6.097 2.53 11.647 3.206l-4.654-24.212c-4.13 1.183-7.183 3.05-9.16 5.61zm41.254 55.696c2.196-2.642 2.986-5.6 2.358-8.867-.627-3.263-2.15-5.656-4.568-7.176-2.43-1.516-6.6-2.574-12.514-3.18l4.84 25.186c4.388-1.322 7.678-3.312 9.884-5.962z" fill="#44C4A1"/><path d="M171.553 455.444c0 19.917-38.402 36.064-85.774 36.064S.004 475.36.004 455.444v-29.5h171.548v29.5z" fill="#F6C358"/><ellipse cx="85.781" cy="425.92" rx="85.775" ry="36.045" fill="#FCD462"/><g fill="#DC8744"><path d="M85.78 396.924c-41.344 0-74.86 12.992-74.86 29.02 0 16.026 33.516 29.018 74.86 29.018s74.858-12.992 74.858-29.02c0-16.026-33.516-29.018-74.86-29.018zm0 54.813c-36.75 0-66.542-11.55-66.542-25.795 0-14.246 29.792-25.795 66.54-25.795s66.542 11.55 66.542 25.795c0 14.247-29.792 25.795-66.54 25.795z"/><path d="M83.038 445.99v-3.532c-11.402-.45-21.637-2.208-30.693-5.27l9.107-4.207c6.985 2.355 14.174 3.756 21.586 4.208v-9.383c-9.402-.87-16.286-2.015-20.652-3.434-4.366-1.418-6.55-3.522-6.55-6.31 0-2.79 2.51-5.07 7.545-6.845 5.037-1.773 11.586-2.74 19.658-2.9v-2.42h7.98v2.466c9.148.26 17.8 1.47 25.952 3.63l-8.112 4.45c-5.493-1.515-11.433-2.45-17.84-2.806v9.092h.377c9.564.872 16.59 2.05 21.078 3.53 4.498 1.484 6.742 3.637 6.742 6.457 0 2.822-2.58 5.12-7.737 6.892-5.158 1.775-11.97 2.74-20.46 2.903v3.48h-7.98zm-8.803-31.218c-2.122.724-3.178 1.628-3.178 2.708 0 1.08.833 1.935 2.498 2.562 1.655.63 4.823 1.234 9.483 1.814v-8.368c-3.747.13-6.68.558-8.803 1.284zm26.266 21.206c2.326-.74 3.494-1.675 3.494-2.804 0-1.128-.914-2.023-2.74-2.684-1.84-.66-5.25-1.28-10.235-1.862v8.704c3.988-.16 7.146-.612 9.48-1.354z"/></g><path d="M171.553 419.615c0 19.917-38.402 36.064-85.774 36.064S.004 439.532.004 419.614v-29.5h171.548v29.5z" fill="#F6C358"/><ellipse cx="85.781" cy="390.132" rx="85.775" ry="36.045" fill="#FCD462"/><g fill="#DC8744"><path d="M85.78 361.095c-41.344 0-74.86 12.992-74.86 29.02 0 16.026 33.516 29.018 74.86 29.018s74.858-12.992 74.858-29.02c0-16.026-33.516-29.018-74.86-29.018zm0 54.813c-36.75 0-66.542-11.55-66.542-25.795 0-14.246 29.792-25.795 66.54-25.795s66.542 11.55 66.542 25.795c0 14.247-29.792 25.795-66.54 25.795z"/><path d="M83.038 410.16v-3.53c-11.402-.452-21.637-2.21-30.693-5.27l9.107-4.208c6.985 2.354 14.174 3.755 21.586 4.207v-9.384c-9.402-.87-16.286-2.015-20.652-3.434-4.366-1.42-6.55-3.523-6.55-6.31 0-2.79 2.51-5.07 7.545-6.846 5.037-1.773 11.586-2.74 19.658-2.9v-2.42h7.98v2.466c9.148.26 17.8 1.468 25.952 3.63l-8.112 4.45c-5.493-1.516-11.433-2.45-17.84-2.807v9.092h.377c9.564.872 16.59 2.05 21.078 3.53 4.498 1.485 6.742 3.638 6.742 6.458 0 2.822-2.58 5.12-7.737 6.892-5.158 1.775-11.97 2.74-20.46 2.903v3.48h-7.98zm-8.803-31.217c-2.122.724-3.178 1.628-3.178 2.708 0 1.08.833 1.936 2.498 2.563 1.655.63 4.823 1.234 9.483 1.814v-8.368c-3.747.13-6.68.557-8.803 1.283zM100.5 400.15c2.326-.74 3.494-1.676 3.494-2.805 0-1.128-.914-2.023-2.74-2.684-1.84-.66-5.25-1.28-10.235-1.86v8.703c3.988-.16 7.146-.612 9.48-1.354z"/></g><path d="M171.553 383.786c0 19.917-38.402 36.064-85.774 36.064S.004 403.704.004 383.786v-29.5h171.548v29.5z" fill="#F6C358"/><ellipse cx="85.781" cy="354.292" rx="85.775" ry="36.045" fill="#FCD462"/><g fill="#DC8744"><path d="M85.78 325.266c-41.344 0-74.86 12.992-74.86 29.02 0 16.026 33.516 29.018 74.86 29.018s74.858-12.992 74.858-29.02c0-16.026-33.516-29.018-74.86-29.018zm0 54.814c-36.75 0-66.542-11.55-66.542-25.795 0-14.246 29.792-25.795 66.54-25.795s66.542 11.55 66.542 25.795c0 14.246-29.792 25.795-66.54 25.795z"/><path d="M83.038 374.332v-3.53c-11.402-.452-21.637-2.21-30.693-5.27l9.107-4.208c6.985 2.354 14.174 3.755 21.586 4.207v-9.382c-9.402-.87-16.286-2.015-20.652-3.434-4.366-1.42-6.55-3.523-6.55-6.31s2.51-5.07 7.545-6.846c5.037-1.773 11.586-2.74 19.658-2.9v-2.42h7.98v2.466c9.148.26 17.8 1.468 25.952 3.63l-8.112 4.45c-5.493-1.516-11.433-2.45-17.84-2.807v9.092h.377c9.564.87 16.59 2.048 21.078 3.53 4.498 1.484 6.742 3.637 6.742 6.457 0 2.822-2.58 5.12-7.737 6.892-5.158 1.774-11.97 2.74-20.46 2.902v3.48h-7.98zm-8.803-31.218c-2.122.724-3.178 1.628-3.178 2.708 0 1.08.833 1.934 2.498 2.562 1.655.63 4.823 1.234 9.483 1.814v-8.368c-3.747.13-6.68.558-8.803 1.284zM100.5 364.32c2.326-.74 3.494-1.674 3.494-2.803 0-1.128-.914-2.023-2.74-2.684-1.84-.66-5.25-1.28-10.235-1.862v8.705c3.988-.16 7.146-.613 9.48-1.354z"/></g><path d="M171.553 347.957c0 19.917-38.402 36.064-85.774 36.064S.004 367.876.004 347.958v-29.5h171.548v29.5z" fill="#F6C358"/><ellipse cx="85.781" cy="318.452" rx="85.775" ry="36.045" fill="#FCD462"/><g fill="#DC8744"><path d="M85.78 289.437c-41.344 0-74.86 12.992-74.86 29.02 0 16.026 33.516 29.018 74.86 29.018s74.858-12.992 74.858-29.02c0-16.026-33.516-29.018-74.86-29.018zm0 54.814c-36.75 0-66.542-11.548-66.542-25.794s29.792-25.795 66.54-25.795 66.542 11.55 66.542 25.796c0 14.246-29.792 25.795-66.54 25.795z"/><path d="M83.038 338.503v-3.53c-11.402-.452-21.637-2.21-30.693-5.27l9.107-4.21c6.985 2.355 14.174 3.756 21.586 4.21v-9.384c-9.402-.87-16.286-2.016-20.652-3.435-4.366-1.42-6.55-3.523-6.55-6.31s2.51-5.07 7.545-6.846c5.037-1.774 11.586-2.74 19.658-2.902v-2.42h7.98v2.467c9.148.26 17.8 1.468 25.952 3.63l-8.112 4.45c-5.493-1.516-11.433-2.45-17.84-2.807v9.092h.377c9.564.872 16.59 2.05 21.078 3.53 4.498 1.485 6.742 3.638 6.742 6.458 0 2.822-2.58 5.12-7.737 6.892-5.158 1.775-11.97 2.74-20.46 2.903v3.48h-7.98zm-8.803-31.218c-2.122.724-3.178 1.628-3.178 2.708 0 1.08.833 1.934 2.498 2.562 1.655.63 4.823 1.234 9.483 1.814V306c-3.747.132-6.68.56-8.803 1.285zm26.266 21.207c2.326-.74 3.494-1.675 3.494-2.804 0-1.128-.914-2.023-2.74-2.684-1.84-.66-5.25-1.28-10.235-1.862v8.704c3.988-.16 7.146-.612 9.48-1.354z"/></g><path d="M352.436 455.444c0 19.917-38.402 36.064-85.774 36.064s-85.774-16.146-85.774-36.064v-29.5h171.548v29.5z" fill="#F6C358"/><ellipse cx="266.655" cy="425.92" rx="85.775" ry="36.045" fill="#FCD462"/><g fill="#DC8744"><path d="M266.662 396.924c-41.343 0-74.86 12.992-74.86 29.02 0 16.026 33.517 29.018 74.86 29.018s74.86-12.992 74.86-29.02c0-16.026-33.516-29.018-74.86-29.018zm0 54.813c-36.75 0-66.54-11.55-66.54-25.795 0-14.246 29.79-25.795 66.54-25.795s66.54 11.55 66.54 25.795c0 14.247-29.79 25.795-66.54 25.795z"/><path d="M263.92 445.99v-3.532c-11.4-.45-21.636-2.208-30.692-5.27l9.107-4.207c6.985 2.355 14.174 3.756 21.586 4.208v-9.383c-9.4-.87-16.285-2.015-20.65-3.434-4.367-1.418-6.55-3.522-6.55-6.31 0-2.79 2.508-5.07 7.544-6.845 5.036-1.773 11.585-2.74 19.657-2.9v-2.42h7.98v2.466c9.15.26 17.8 1.47 25.953 3.63l-8.112 4.45c-5.492-1.515-11.432-2.45-17.838-2.806v9.092h.376c9.564.872 16.59 2.05 21.078 3.53 4.498 1.484 6.742 3.637 6.742 6.457 0 2.822-2.58 5.12-7.737 6.892-5.157 1.775-11.97 2.74-20.458 2.903v3.48h-7.98zm-8.802-31.218c-2.122.724-3.178 1.628-3.178 2.708 0 1.08.833 1.935 2.498 2.562 1.655.63 4.823 1.234 9.483 1.814v-8.368c-3.746.13-6.68.558-8.802 1.284zm26.267 21.206c2.325-.74 3.493-1.675 3.493-2.804 0-1.128-.914-2.023-2.74-2.684-1.84-.66-5.25-1.28-10.235-1.862v8.704c3.99-.16 7.146-.612 9.482-1.354z"/></g><path d="M352.436 419.615c0 19.917-38.402 36.064-85.774 36.064s-85.774-16.147-85.774-36.065v-29.5h171.548v29.5z" fill="#F6C358"/><ellipse cx="266.655" cy="390.132" rx="85.775" ry="36.045" fill="#FCD462"/><g fill="#DC8744"><path d="M266.662 361.095c-41.343 0-74.86 12.992-74.86 29.02 0 16.026 33.517 29.018 74.86 29.018s74.86-12.992 74.86-29.02c0-16.026-33.516-29.018-74.86-29.018zm0 54.813c-36.75 0-66.54-11.55-66.54-25.795 0-14.246 29.79-25.795 66.54-25.795s66.54 11.55 66.54 25.795c0 14.247-29.79 25.795-66.54 25.795z"/><path d="M263.92 410.16v-3.53c-11.4-.452-21.636-2.21-30.692-5.27l9.107-4.208c6.985 2.354 14.174 3.755 21.586 4.207v-9.384c-9.4-.87-16.285-2.015-20.65-3.434-4.367-1.42-6.55-3.523-6.55-6.31 0-2.79 2.508-5.07 7.544-6.846 5.036-1.773 11.585-2.74 19.657-2.9v-2.42h7.98v2.466c9.15.26 17.8 1.468 25.953 3.63l-8.112 4.45c-5.492-1.516-11.432-2.45-17.838-2.807v9.092h.376c9.564.872 16.59 2.05 21.078 3.53 4.498 1.485 6.742 3.638 6.742 6.458 0 2.822-2.58 5.12-7.737 6.892-5.157 1.775-11.97 2.74-20.458 2.903v3.48h-7.98zm-8.802-31.217c-2.122.724-3.178 1.628-3.178 2.708 0 1.08.833 1.936 2.498 2.563 1.655.63 4.823 1.234 9.483 1.814v-8.368c-3.746.13-6.68.557-8.802 1.283zm26.267 21.206c2.325-.74 3.493-1.676 3.493-2.805 0-1.128-.914-2.023-2.74-2.684-1.84-.66-5.25-1.28-10.235-1.86v8.703c3.99-.16 7.146-.612 9.482-1.354z"/></g></svg>