<svg xmlns="http://www.w3.org/2000/svg" viewBox="0 0 512 512"><path d="M426.667 85.333c-7.76 0-15.052 2.083-21.333 5.73V64c0-23.53-19.135-42.667-42.667-42.667-8.78 0-16.938 2.667-23.73 7.22C333.095 11.947 317.25 0 298.668 0c-18.583 0-34.427 11.948-40.27 28.552-6.793-4.552-14.95-7.22-23.73-7.22C211.135 21.333 192 40.47 192 64v264.146c0 5.375-3.542 8.135-5.063 9.073-1.52.937-5.615 2.864-10.375.468l-68.5-34.25c-6.24-3.125-13.23-4.77-20.208-4.77-24.917 0-45.188 20.27-45.188 45.187V352c0 2.958 1.23 5.78 3.385 7.802l123.116 114.906C194.938 498.75 228.542 512 263.78 512h66.886c76.458 0 138.667-62.208 138.667-138.667V128c0-23.53-19.135-42.667-42.666-42.667z" fill="#303C42"/><path d="M448 373.333c0 64.698-52.635 117.333-117.333 117.333h-66.885c-29.813 0-58.25-11.208-80.052-31.563L64 347.365v-3.51C64 330.698 74.698 320 87.854 320c3.677 0 7.375.875 10.667 2.52l68.5 34.25c9.97 5.01 21.636 4.46 31.136-1.395 9.5-5.875 15.177-16.052 15.177-27.23V64c0-11.76 9.573-21.333 21.333-21.333S256 52.24 256 64v138.667c0 5.896 4.77 10.667 10.667 10.667 5.896 0 10.667-4.77 10.667-10.667v-160c0-11.76 9.573-21.333 21.333-21.333 11.76 0 21.333 9.573 21.333 21.333v160c0 5.896 4.77 10.667 10.667 10.667 5.896 0 10.667-4.77 10.667-10.667V64c0-11.76 9.573-21.333 21.333-21.333C374.427 42.667 384 52.24 384 64v170.667c0 4.042 2.323 7.75 5.938 9.563.01 0 .02.01.042.02l.063.032c.052.02.104.042.146.073.02 0 .02.02.04.01l.01.01c.01 0 .022.01.022.01.02.01.02.01.042.01.01.02.02.02.03.02l.032.01c.01 0 .01.022.042.022.02.042.042.01.042.01 5.135 2.25 11.24.094 13.802-5 .917-1.844 1.26-3.823 1.083-5.73V128c0-11.76 9.573-21.333 21.333-21.333 11.76 0 21.333 9.573 21.333 21.333v245.333z" fill="#FAFAFA"/><path d="M437.333 109.947V352c0 64.698-52.635 117.333-117.333 117.333h-66.885c-29.813 0-58.25-11.208-80.052-31.563L65.34 337.236c-.634 2.143-1.34 4.272-1.34 6.618v3.51l119.73 111.74c21.8 20.354 50.24 31.563 80.05 31.563h66.886c64.698 0 117.333-52.635 117.333-117.333V128c0-7.792-4.41-14.33-10.667-18.053z" opacity=".1"/><linearGradient id="a" gradientUnits="userSpaceOnUse" x1="-41.321" y1="638.088" x2="-23.633" y2="629.839" gradientTransform="matrix(21.3333 0 0 -21.3333 996.333 13791.667)"><stop offset="0" stop-color="#FFF" stop-opacity=".2"/><stop offset="1" stop-color="#FFF" stop-opacity="0"/></linearGradient><path d="M426.667 85.333c-7.76 0-15.052 2.083-21.333 5.73V64c0-23.53-19.135-42.667-42.667-42.667-8.78 0-16.938 2.667-23.73 7.22C333.095 11.947 317.25 0 298.668 0c-18.583 0-34.427 11.948-40.27 28.552-6.793-4.552-14.95-7.22-23.73-7.22C211.135 21.333 192 40.47 192 64v264.146c0 5.375-3.542 8.135-5.063 9.073-1.52.937-5.615 2.864-10.375.468l-68.5-34.25c-6.24-3.125-13.23-4.77-20.208-4.77-24.917 0-45.188 20.27-45.188 45.187V352c0 2.958 1.23 5.78 3.385 7.802l123.116 114.906C194.938 498.75 228.542 512 263.78 512h66.886c76.458 0 138.667-62.208 138.667-138.667V128c0-23.53-19.135-42.667-42.666-42.667z" fill="url(#a)"/></svg>